<?xml version="1.0" encoding="utf-8"?>
<!-- Generator: Adobe Illustrator 25.1.0, SVG Export Plug-In . SVG Version: 6.00 Build 0)  -->
<svg version="1.1" id="Layer_1" xmlns="http://www.w3.org/2000/svg" xmlns:xlink="http://www.w3.org/1999/xlink" x="0px" y="0px"
	 viewBox="0 0 1042.2 440.2" style="enable-background:new 0 0 1042.2 440.2;" xml:space="preserve">
<style type="text/css">
	.st0{fill:#282828;}
	.st1{fill:#0DA663;}
	.st2{fill:#FF4063;}
	.st3{fill:#006EF0;}
</style>
<g>
	<path class="st0" d="M352.3,178.8h-40.4v121.1c0,23.2-18.5,41.7-41.3,41.7c-22.8,0-40.4-18.5-40.4-41.3c0,0,0-80.2,0-80.2
		c0-0.1,0-1,0-1c-0.1-22.2-19.1-40.2-41.3-40.2h-40.4V220v73.1l0,8.7c0,67.4,54.8,122.2,122.1,122.2c67.4,0,122.8-55.4,122.8-122.8
		v-82.5C393.3,196.3,374.6,178.8,352.3,178.8z"/>
	<path class="st0" d="M61.9,424.4h40.8V76H21.1v307.6C21.1,406.1,39.4,424.4,61.9,424.4"/>
	<path class="st0" d="M960.4,424.4h41.3V177.7h-81.6v206.4C920.1,406.3,938.1,424.4,960.4,424.4"/>
	<path class="st1" d="M960.9,136.2c33.2,0,60.2-27,60.2-60.2c0-33.2-27-60.2-60.2-60.2c-33.2,0-60.2,27-60.2,60.2
		C900.7,109.2,927.7,136.2,960.9,136.2"/>
	<path class="st2" d="M761.6,136.2c33.2,0,60.2-27,60.2-60.2c0-33.2-27-60.2-60.2-60.2c-33.2,0-60.2,27-60.2,60.2
		C701.4,109.2,728.4,136.2,761.6,136.2"/>
	<path class="st3" d="M562.3,136.2c33.2,0,60.2-27,60.2-60.2c0-33.2-27-60.2-60.2-60.2c-33.2,0-60.2,27-60.2,60.2
		C502.1,109.2,529.1,136.2,562.3,136.2"/>
	<g>
		<path class="st0" d="M874.1,361.9v-8.7l0-8.7l0-43.4c0-33.4-13.3-63.6-34.8-85.9c-2-2.1-4.2-4.1-6.4-6.1c-2.2-1.9-4.4-3.8-6.6-5.6
			c-20.8-16.1-46.7-25.9-74.9-25.9c-24.9,0-52.1,9.3-71.5,22.2c20.9,26.1,31.8,50.5,36.5,79.6c7.4-9.9,21.8-20.2,35.1-20.2
			c16.2,0,30.2,9.4,37,22.9c2.9,5.7,3.9,12,3.9,18.8l0,60.9l0,21.7l0,0.1c0,0.1,0,0.2,0,0.3c0.2,22.1,18.9,40.3,41,40.4h40.8
			L874.1,361.9z"/>
	</g>
	<path class="st0" d="M684.4,353.2l0-8.7l0-43.4c0-33.4-13.3-63.6-34.8-85.9c-2-2.1-4.2-4.1-6.4-6.1c-2.2-1.9-4.4-3.8-6.6-5.6
		c-20.8-16.1-46.7-25.9-74.9-25.9c-67.7,0-122.7,55.3-122.7,123.3v83.1c0,22.1,17.9,40.2,39.9,40.3H521v-123
		c0-23.4,17.8-42.1,40.7-42.1c16.2,0,30.2,9.4,37,22.9c2.9,5.7,3.9,12,3.9,18.8l0,60.9l0,21.7l0,0.1c0,0.1,0,0.2,0,0.3
		c0.2,22.1,18.9,40.3,41,40.4h40.8l0-62.5V353.2z"/>
</g>
</svg>
